<?xml version="1.0" encoding="UTF-8"?>
<svg id="Layer_1" xmlns="http://www.w3.org/2000/svg" version="1.1" viewBox="0 0 499.97 499.97">
  <!-- Generator: Adobe Illustrator 29.2.1, SVG Export Plug-In . SVG Version: 2.1.0 Build 116)  -->
  <defs>
    <style>
      .st0 {
        fill: #fff;
      }
    </style>
  </defs>
  <g>
    <path class="st0" d="M208.2928,477.57014c13.52478,2.46167,27.45697,3.75525,41.6922,3.75525,14.22986,0,28.15686-1.29248,41.67688-3.75232l-41.68561-41.68604-41.68347,41.68311Z"/>
    <path class="st0" d="M481.3254,249.985c0-127.76581-103.57458-231.34045-231.34039-231.34045S18.64461,122.21919,18.64461,249.985c0,96.38696,58.95337,178.99371,142.76392,213.76178.13745-.14526.25787-.30048.40015-.44275l57.79236-57.79236-57.79236-57.79309c-8.38837-8.38837-8.38837-21.9881,0-30.37506,8.3869-8.38696,21.98669-8.38696,30.37366,0l57.79395,57.79291,57.79291-57.79291c8.38971-8.38696,21.98669-8.38696,30.3764,0,8.38696,8.38696,8.38696,21.98669,0,30.37506l-57.79358,57.79309,57.79358,57.79236c.1438.1438.2655.30066.40436.44751,83.81665-34.76532,142.77545-117.37512,142.77545-213.76654Z"/>
    <path d="M280.35201,405.51167l57.79358-57.79309c8.38696-8.38837,8.38696-21.9881,0-30.37506-8.38971-8.38696-21.98669-8.38696-30.3764,0l-57.79291,57.79291-57.79395-57.79291c-8.38696-8.38696-21.98676-8.38696-30.37366,0-8.38837,8.38696-8.38837,21.98669,0,30.37506l57.79236,57.79309-57.79236,57.79236c-.14227.14227-.2627.29749-.40015.44275,14.90674,6.1839,30.59625,10.85876,46.88428,13.82336l41.68347-41.68311,41.68561,41.68604c16.28931-2.96375,31.9801-7.63806,46.88806-13.82153-.13885-.14685-.26056-.30371-.40436-.44751l-57.79358-57.79236Z"/>
  </g>
  <g>
    <path d="M249.97464,293.06387c-30.23988,0-60.4815-11.51046-83.50242-34.53313-46.04359-46.04359-46.04359-120.963,0-167.00658,46.04184-46.04533,120.96475-46.04533,167.00658,0h.0035c46.04184,46.04359,46.04184,120.963,0,167.00658-23.02442,23.02267-53.26429,34.53313-83.50766,34.53313Z"/>
    <path class="st0" d="M249.97639,110.68902c-16.48398,0-32.96797,6.27287-45.5172,18.8221-25.09672,25.09847-25.09672,65.93419,0,91.03266,25.09847,25.09847,65.93069,25.09497,91.03615,0,25.09147-25.09672,25.09147-65.93419-.0035-91.03266-12.54923-12.54748-29.03322-18.8221-45.51545-18.8221Z"/>
  </g>
</svg>