<?xml version="1.0" encoding="UTF-8"?>
<svg id="Layer_1" xmlns="http://www.w3.org/2000/svg" version="1.1" viewBox="0 0 499.97 499.97">
  <!-- Generator: Adobe Illustrator 29.2.1, SVG Export Plug-In . SVG Version: 2.1.0 Build 116)  -->
  <defs>
    <style>
      .st0 {
        fill: #fff;
      }
    </style>
  </defs>
  <circle class="st0" cx="249.985" cy="249.985" r="231.34042"/>
  <g>
    <g>
      <path d="M249.96665,236.08355c-24.17923,0-48.35986-9.20354-66.76695-27.61203-36.81558-36.81558-36.81558-96.71972,0-133.53529,36.81418-36.81698,96.72112-36.81698,133.53529,0h.0028c36.81418,36.81558,36.81418,96.71972,0,133.53529-18.40989,18.40849-42.58912,27.61203-66.77114,27.61203Z"/>
      <path class="st0" d="M249.96805,90.26008c-13.18028,0-26.36056,5.01567-36.39469,15.0498-20.06686,20.06826-20.06686,52.71973,0,72.78798,20.06826,20.06826,52.71693,20.06546,72.79078,0,20.06266-20.06686,20.06266-52.71973-.0028-72.78798-10.03413-10.03273-23.21441-15.0498-36.39329-15.0498Z"/>
    </g>
    <path d="M280.3604,358.18817l57.7936-57.79307c8.38694-8.38834,8.38694-21.98811,0-30.37505-8.38974-8.38694-21.98671-8.38694-30.37645,0l-57.7929,57.7929-57.79395-57.7929c-8.38694-8.38694-21.98671-8.38694-30.37365,0-8.38834,8.38694-8.38834,21.98671,0,30.37505l57.79237,57.79307-57.79237,57.79237c-8.38834,8.38974-8.38834,21.98671,0,30.37645,4.19347,4.19207,9.69015,6.28951,15.18683,6.28951s10.99336-2.09743,15.18683-6.28951l57.79395-57.79342,57.7929,57.79342c4.19487,4.19207,9.69295,6.28951,15.18823,6.28951s10.99336-2.09743,15.18823-6.28951c8.38694-8.38974,8.38694-21.98671,0-30.37645l-57.7936-57.79237Z"/>
  </g>
</svg>